<svg xmlns="http://www.w3.org/2000/svg" viewBox="0 0 900 900" fill="none">
  <defs>
    <linearGradient id="bg" x1="80" y1="60" x2="790" y2="880" gradientUnits="userSpaceOnUse">
      <stop stop-color="#0D5C44"/>
      <stop offset="1" stop-color="#1A7F67"/>
    </linearGradient>
    <radialGradient id="halo" cx="0" cy="0" r="1" gradientUnits="userSpaceOnUse" gradientTransform="translate(670 164) rotate(146.271) scale(296.354 246.004)">
      <stop stop-color="#fff" stop-opacity=".75"/>
      <stop offset="1" stop-color="#fff" stop-opacity="0"/>
    </radialGradient>
  </defs>
  <rect width="900" height="900" rx="48" fill="url(#bg)"/>
  <circle cx="688" cy="160" r="204" fill="url(#halo)"/>
  <circle cx="182" cy="744" r="190" fill="#fff" fill-opacity=".08"/>
  <g opacity=".95">
    <circle cx="452" cy="332" r="108" fill="#7D4FD6" fill-opacity=".3"/>
    <circle cx="452" cy="332" r="84" fill="#FFFFFF" fill-opacity=".16"/>
    <path d="M452 276c31 0 54 19 68 58-18-10-36-14-54-14-18 0-37 4-56 14 14-39 38-58 70-58Z" fill="#fff" fill-opacity=".72"/>
    <path d="M388 354c17-18 38-28 64-28 25 0 46 10 62 28-21 17-42 24-62 24-20 0-41-7-64-24Z" fill="#fff" fill-opacity=".54"/>
  </g>
  <g>
    <rect x="116" y="516" width="668" height="216" rx="36" fill="#fff" fill-opacity=".14" stroke="#fff" stroke-opacity=".2" stroke-width="3"/>
    <circle cx="228" cy="624" r="52" fill="#F3B786"/>
    <path d="M188 632c4-48 23-80 52-80 28 0 48 22 56 74-14-12-31-18-50-18-21 0-41 8-58 24Z" fill="#1B2D22"/>
    <rect x="174" y="672" width="108" height="30" rx="15" fill="#fff" fill-opacity=".18"/>
    <circle cx="448" cy="624" r="52" fill="#C88051"/>
    <path d="M406 632c8-52 29-84 58-84 31 0 56 28 62 90-18-16-38-24-58-24-21 0-42 6-62 18Z" fill="#1B2D22"/>
    <rect x="396" y="672" width="108" height="30" rx="15" fill="#fff" fill-opacity=".18"/>
    <circle cx="668" cy="624" r="52" fill="#E1A071"/>
    <path d="M626 632c6-49 28-82 60-82 26 0 48 22 54 76-12-10-28-16-46-16-25 0-47 7-68 22Z" fill="#1B2D22"/>
    <rect x="616" y="672" width="108" height="30" rx="15" fill="#fff" fill-opacity=".18"/>
  </g>
</svg>
