<svg xmlns="http://www.w3.org/2000/svg" viewBox="0 0 760 460" fill="none">
  <defs>
    <linearGradient id="stage" x1="0" y1="0" x2="1" y2="1">
      <stop offset="0%" stop-color="#f4efe6"/>
      <stop offset="100%" stop-color="#e8efe9"/>
    </linearGradient>
  </defs>
  <rect width="760" height="460" rx="34" fill="url(#stage)"/>
  <rect x="0" y="290" width="760" height="170" fill="#153f31"/>
  <circle cx="622" cy="80" r="100" fill="#d6a348" opacity="0.16"/>
  <rect x="84" y="72" width="188" height="236" rx="26" fill="#f8f3e8"/>
  <rect x="292" y="72" width="388" height="236" rx="28" fill="#fbf7ef"/>
  <g transform="translate(184 166)">
    <circle cx="0" cy="0" r="48" fill="#5b3d2c"/>
    <path d="M-62 176c0-70 28-122 62-122s62 52 62 122v48h-124z" fill="#0f5a43"/>
    <rect x="-26" y="76" width="52" height="134" rx="18" fill="#1a6b52"/>
    <rect x="-92" y="216" width="184" height="20" rx="10" fill="#0d3226" opacity="0.26"/>
  </g>
  <rect x="346" y="112" width="266" height="20" rx="10" fill="#0f5a43" opacity="0.14"/>
  <rect x="346" y="150" width="208" height="18" rx="9" fill="#0f5a43" opacity="0.1"/>
  <rect x="346" y="184" width="188" height="18" rx="9" fill="#0f5a43" opacity="0.08"/>
  <rect x="346" y="224" width="144" height="18" rx="9" fill="#0f5a43" opacity="0.1"/>
  <rect x="550" y="220" width="102" height="44" rx="22" fill="#d6a348"/>
  <rect x="570" y="236" width="64" height="12" rx="6" fill="#fff5db" opacity="0.88"/>
</svg>
