<svg xmlns="http://www.w3.org/2000/svg" viewBox="0 0 640 820" fill="none">
  <defs>
    <linearGradient id="bg" x1="60" y1="30" x2="560" y2="820" gradientUnits="userSpaceOnUse">
      <stop stop-color="#6D1321"/>
      <stop offset="1" stop-color="#0D5C44"/>
    </linearGradient>
  </defs>
  <rect width="640" height="820" rx="42" fill="url(#bg)"/>
  <circle cx="324" cy="232" r="124" fill="#8D5738"/>
  <path d="M214 244c6-112 68-172 142-172 68 0 130 54 144 162-38-28-77-38-120-32-55 7-96 18-166 42Z" fill="#171B16"/>
  <path d="M252 286c18 72 68 122 126 122 66 0 116-54 130-132-46-29-92-40-138-34-44 6-74 20-118 44Z" fill="#A66A43"/>
  <rect x="126" y="448" width="388" height="300" rx="108" fill="#8B0E22"/>
  <rect x="164" y="502" width="312" height="220" rx="88" fill="#A6172D"/>
  <rect x="188" y="468" width="264" height="42" rx="21" fill="#D8A348"/>
</svg>
