<svg xmlns="http://www.w3.org/2000/svg" viewBox="0 0 640 420" fill="none">
  <defs>
    <linearGradient id="card" x1="0" y1="0" x2="1" y2="1">
      <stop offset="0%" stop-color="#d6a348"/>
      <stop offset="100%" stop-color="#c18d30"/>
    </linearGradient>
  </defs>
  <rect width="640" height="420" rx="32" fill="url(#card)"/>
  <circle cx="534" cy="84" r="88" fill="#fff3d4" opacity="0.16"/>
  <rect x="48" y="60" width="246" height="300" rx="30" fill="#fffaf0"/>
  <rect x="78" y="92" width="118" height="16" rx="8" fill="#0f5a43" opacity="0.16"/>
  <rect x="78" y="122" width="160" height="22" rx="11" fill="#0f5a43" opacity="0.12"/>
  <rect x="78" y="162" width="126" height="34" rx="17" fill="#0f5a43"/>
  <rect x="78" y="228" width="188" height="92" rx="24" fill="#d6a348" opacity="0.12"/>
  <rect x="106" y="248" width="132" height="14" rx="7" fill="#0f5a43" opacity="0.12"/>
  <rect x="106" y="272" width="100" height="14" rx="7" fill="#0f5a43" opacity="0.08"/>
  <g transform="translate(470 214)">
    <circle cx="0" cy="0" r="52" fill="#5a3d2b"/>
    <path d="M-68 164c0-64 28-114 68-114s68 50 68 114v50h-136z" fill="#f6f0e4"/>
    <rect x="-30" y="82" width="60" height="120" rx="20" fill="#0f5a43"/>
    <rect x="-116" y="214" width="232" height="20" rx="10" fill="#8e6722" opacity="0.28"/>
  </g>
  <rect x="346" y="262" width="112" height="70" rx="22" fill="#fff3d4" opacity="0.92"/>
  <rect x="366" y="282" width="72" height="12" rx="6" fill="#8e6722" opacity="0.22"/>
  <rect x="366" y="304" width="48" height="12" rx="6" fill="#8e6722" opacity="0.18"/>
</svg>
