<svg xmlns="http://www.w3.org/2000/svg" viewBox="0 0 1200 900" fill="none">
  <defs>
    <linearGradient id="bg" x1="112" y1="68" x2="1092" y2="846" gradientUnits="userSpaceOnUse">
      <stop stop-color="#081912"/>
      <stop offset="1" stop-color="#0D5C44"/>
    </linearGradient>
    <radialGradient id="glow" cx="0" cy="0" r="1" gradientUnits="userSpaceOnUse" gradientTransform="translate(598 384) rotate(90) scale(250 250)">
      <stop stop-color="#B8FFF0" stop-opacity=".9"/>
      <stop offset="1" stop-color="#B8FFF0" stop-opacity="0"/>
    </radialGradient>
  </defs>
  <rect width="1200" height="900" rx="56" fill="url(#bg)"/>
  <circle cx="598" cy="384" r="248" fill="url(#glow)"/>
  <circle cx="598" cy="384" r="160" stroke="#9DD4CB" stroke-opacity=".45" stroke-width="2"/>
  <circle cx="598" cy="384" r="220" stroke="#9DD4CB" stroke-opacity=".24" stroke-width="2"/>
  <rect x="164" y="128" width="872" height="644" rx="42" fill="#FFFFFF" fill-opacity=".06" stroke="#FFFFFF" stroke-opacity=".12" stroke-width="2"/>
  <rect x="220" y="190" width="360" height="80" rx="28" fill="#FFFFFF" fill-opacity=".12"/>
  <rect x="220" y="298" width="294" height="86" rx="28" fill="#FFFFFF" fill-opacity=".14"/>
  <rect x="686" y="256" width="250" height="150" rx="34" fill="#FFFFFF" fill-opacity=".12"/>
  <rect x="684" y="518" width="282" height="126" rx="34" fill="#FFFFFF" fill-opacity=".12"/>
  <rect x="244" y="520" width="246" height="54" rx="27" fill="#FFFFFF" fill-opacity=".12"/>
  <rect x="244" y="594" width="196" height="54" rx="27" fill="#FFFFFF" fill-opacity=".12"/>
  <path d="M600 314c28 0 48 19 48 46 0 25-20 44-48 44s-48-19-48-44c0-27 20-46 48-46Z" fill="#EAFBF6"/>
  <path d="M470 504c24-46 70-70 130-70 59 0 106 24 130 70-42 34-85 50-130 50s-88-16-130-50Z" fill="#EAFBF6" fill-opacity=".92"/>
</svg>
